HIERARCHY
ROOT Hips
{
	OFFSET 0.00 0.00 0.00
	CHANNELS 6 Xposition Yposition Zposition Xrotation Yrotation Zrotation
	JOINT Spine
	{
		OFFSET 0.00000 7.53995 0.00000
		CHANNELS 3 Xrotation Yrotation Zrotation
		JOINT Head
		{
			OFFSET 0.00000 15.09381 0.00000
			CHANNELS 3 Xrotation Yrotation Zrotation
			End Site
			{
				OFFSET 0.00000 4.52755 0.00000
			}
		}
		JOINT LeftShoulder
		{
			OFFSET 0.00000 9.73893 0.00000
			CHANNELS 3 Xrotation Yrotation Zrotation
			JOINT LeftArm
			{
				OFFSET 7.08401 0.00000 0.00000
				CHANNELS 3 Xrotation Yrotation Zrotation
				JOINT LeftForeArm
				{
					OFFSET 10.25932 0.00000 0.00000
					CHANNELS 3 Yrotation Zrotation Xrotation
					JOINT LeftHand
					{
						OFFSET 9.89698 0.00000 0.00000
						CHANNELS 3 Xrotation Yrotation Zrotation
						JOINT LeftHandThumb1
						{
							OFFSET 0.00000 0.00000 0.00000
							CHANNELS 3 Xrotation Zrotation Yrotation
							End Site
							{
								OFFSET 0.00000 0.00000 3.93700
							}
						}
						End Site
						{
							OFFSET 3.93700 0.00000 0.00000
						}
					}
				}
			}
		}
		JOINT RightShoulder
		{
			OFFSET 0.00000 9.73893 0.00000
			CHANNELS 3 Xrotation Yrotation Zrotation
			JOINT RightArm
			{
				OFFSET -7.08401 0.00000 0.00000
				CHANNELS 3 Xrotation Yrotation Zrotation
				JOINT RightForeArm
				{
					OFFSET -10.25932 0.00000 0.00000
					CHANNELS 3 Yrotation Zrotation Xrotation
					JOINT RightHand
					{
						OFFSET -9.89698 0.00000 0.00000
						CHANNELS 3 Xrotation Yrotation Zrotation
						JOINT RightHandThumb1
						{
							OFFSET 0.00000 0.00000 0.00000
							CHANNELS 3 Xrotation Zrotation Yrotation
							End Site
							{
								OFFSET 0.00000 0.00000 3.93700
							}
						}
						End Site
						{
							OFFSET -3.93700 0.00000 0.00000
						}
					}
				}
			}
		}
	}
	JOINT LeftUpLeg
	{
		OFFSET 3.34548 0.00000 0.00000
		CHANNELS 3 Xrotation Yrotation Zrotation
		JOINT LeftLeg
		{
			OFFSET 0.00000 -19.11473 0.00000
			CHANNELS 3 Xrotation Yrotation Zrotation
			JOINT LeftFoot
			{
				OFFSET 0.00000 -16.04560 0.00000
				CHANNELS 3 Xrotation Yrotation Zrotation
				JOINT LeftToeBase
				{
					OFFSET 0.00000 -1.43467 5.35428
					CHANNELS 3 Xrotation Yrotation Zrotation
					End Site
					{
						OFFSET 0.00000 0.00000 2.95275
					}
				}
			}
		}
	}
	JOINT RightUpLeg
	{
		OFFSET -3.34548 0.00000 0.00000
		CHANNELS 3 Xrotation Yrotation Zrotation
		JOINT RightLeg
		{
			OFFSET 0.00000 -19.11473 0.00000
			CHANNELS 3 Xrotation Yrotation Zrotation
			JOINT RightFoot
			{
				OFFSET 0.00000 -16.04560 0.00000
				CHANNELS 3 Xrotation Yrotation Zrotation
				JOINT RightToeBase
				{
					OFFSET 0.00000 -1.43467 5.35428
					CHANNELS 3 Xrotation Yrotation Zrotation
					End Site
					{
						OFFSET 0.00000 0.00000 2.95275
					}
				}
			}
		}
	}
}
MOTION
Frames: 17
Frame Time: 0.008333
 -1.9577 37.0131 -0.3595 8.7284 1.4528 -0.1298 -8.7323 7.6134 0.0846 3.2183 -9.3456 2.6113 -13.8177 1.6344 19.1169 -12.4755 3.7937 -18.8159 -5.7938 0.0000 28.0650 2.6424 11.5080 -13.0250 33.1476 -0.0000 26.2537 3.5392 -8.5128 -18.7481 -30.4870 -11.6958 20.5072 14.7503 -0.0000 -169.0091 0.5483 6.9140 -4.5456 32.8623 0.0000 -24.3270 -7.2495 6.5720 4.8048 7.8034 0.0000 -0.0000 -13.9766 10.0818 -15.7817 14.7076 -0.0000 -0.0000 -8.5191 -11.1392 -4.7543 10.1316 0.0000 0.0000 -13.2048 -8.4230 6.5934 6.0883 0.0000 -0.0000
 -1.9404 37.0139 -0.3631 8.7421 1.4913 -0.1340 -8.7141 7.6047 0.0765 3.1845 -9.3191 2.5862 -13.8195 1.6389 19.1037 -12.5156 3.7964 -18.8139 -5.8325 0.0000 28.0689 2.6359 11.4921 -13.0114 33.1476 -0.0000 26.2537 3.5621 -8.5022 -18.7339 -30.5192 -11.6958 20.5539 14.7304 -0.0000 -169.0190 0.5478 6.9689 -4.5059 32.8623 0.0000 -24.3270 -7.2790 6.5485 4.7781 7.8225 -0.0000 -0.0000 -13.9897 10.0616 -15.7543 14.7346 0.0000 0.0000 -8.4980 -11.0889 -4.7761 10.0589 -0.0000 0.0000 -13.1540 -8.4870 6.6511 6.0593 -0.0000 -0.0000
 -1.9198 37.0140 -0.3658 8.7412 1.5259 -0.1227 -8.6750 7.6230 0.0511 3.1649 -9.3536 2.6053 -13.8306 1.6078 19.1000 -12.5897 3.8177 -18.8201 -5.8398 0.0000 28.1158 2.6445 11.4976 -13.0464 33.1476 -0.0000 26.2537 3.5806 -8.5153 -18.7059 -30.5518 -11.6907 20.5891 14.7317 -0.0000 -169.0516 0.5520 6.9424 -4.5576 32.8623 0.0000 -24.3270 -7.2870 6.5207 4.7296 7.8400 -0.0000 0.0000 -14.0030 10.0496 -15.7054 14.7082 0.0000 -0.0000 -8.5045 -11.0539 -4.8196 10.0666 -0.0000 -0.0000 -13.1477 -8.5608 6.6795 6.0598 -0.0000 -0.0000
 -1.8987 37.0142 -0.3691 8.7458 1.5482 -0.1107 -8.6456 7.6501 0.0311 3.1591 -9.3525 2.6139 -13.8138 1.5964 19.0852 -12.5848 3.8070 -18.8238 -5.8802 0.0000 28.0453 2.6575 11.5502 -13.0514 33.1476 -0.0000 26.2537 3.6307 -8.5449 -18.6916 -30.5691 -11.6519 20.6519 14.7018 -0.0000 -169.0494 0.5521 6.9266 -4.5685 32.8623 0.0000 -24.3270 -7.3007 6.5025 4.6832 7.8586 0.0000 -0.0000 -14.0261 10.0418 -15.6832 14.7570 0.0000 0.0000 -8.5224 -11.0286 -4.8638 10.0764 -0.0000 0.0000 -13.1327 -8.6062 6.6701 6.0667 0.0000 0.0000
 -1.8773 37.0139 -0.3719 8.7528 1.5642 -0.0986 -8.6254 7.6775 -0.0020 3.1957 -9.2973 2.6438 -13.7669 1.5916 19.1204 -12.6022 3.8112 -18.8730 -5.9056 0.0000 27.9662 2.6404 11.5222 -13.0002 33.1476 -0.0000 26.2537 3.6664 -8.5085 -18.6431 -30.5501 -11.6502 20.6618 14.6895 -0.0000 -169.1505 0.5595 6.9259 -4.6298 32.8623 0.0000 -24.3270 -7.3172 6.5057 4.6352 7.8856 -0.0000 -0.0000 -14.0216 9.9260 -15.5159 14.4879 0.0000 -0.0000 -8.5400 -10.9923 -4.9073 10.0833 -0.0000 0.0000 -13.1211 -8.6649 6.6770 6.0843 -0.0000 -0.0000
 -1.8534 37.0139 -0.3731 8.7555 1.5774 -0.0893 -8.5962 7.7092 -0.0133 3.1681 -9.3383 2.6398 -13.7772 1.5807 19.1073 -12.4547 3.7725 -18.8876 -5.9610 0.0000 27.7761 2.6348 11.5508 -12.9430 33.1476 -0.0000 26.2537 3.6733 -8.5236 -18.6383 -30.5630 -11.6373 20.7268 14.7017 -0.0000 -169.1397 0.5596 6.9781 -4.5962 32.8623 0.0000 -24.3270 -7.3195 6.4836 4.5879 7.8875 -0.0000 0.0000 -14.0585 10.0105 -15.6134 14.7039 -0.0000 0.0000 -8.5475 -10.9626 -4.9523 10.0807 0.0000 -0.0000 -13.1067 -8.7113 6.7177 6.0784 0.0000 -0.0000
 -1.8303 37.0140 -0.3766 8.7553 1.5802 -0.0732 -8.5666 7.7490 -0.0435 3.1854 -9.3423 2.6594 -13.7920 1.5425 19.1073 -12.4626 3.7888 -18.8838 -5.9673 0.0000 27.7844 2.6184 11.4570 -12.9652 33.1476 -0.0000 26.2537 3.7001 -8.5293 -18.6120 -30.5869 -11.6294 20.7832 14.7103 -0.0000 -169.1141 0.5648 6.9195 -4.6778 32.8623 0.0000 -24.3270 -7.3305 6.4843 4.5372 7.9157 -0.0000 0.0000 -14.0945 10.0083 -15.6264 14.7755 -0.0000 0.0000 -8.5559 -10.8915 -4.9975 10.0827 0.0000 0.0000 -13.0893 -8.7887 6.7088 6.0841 -0.0000 0.0000
 -1.8067 37.0138 -0.3785 8.7595 1.5873 -0.0574 -8.5489 7.7679 -0.0745 3.2207 -9.3214 2.6834 -13.7875 1.5339 19.1261 -12.4748 3.8083 -18.9028 -6.0022 0.0000 27.7937 2.6228 11.4719 -12.9702 33.1476 -0.0000 26.2537 3.6848 -8.4827 -18.5955 -30.4965 -11.6152 20.8385 14.7230 -0.0000 -169.1561 0.5687 6.9645 -4.6800 32.8623 0.0000 -24.3270 -7.3397 6.4705 4.4825 7.9367 0.0000 -0.0000 -14.1092 10.0073 -15.5990 14.7400 0.0000 0.0000 -8.5528 -10.7992 -5.0398 10.0637 0.0000 0.0000 -13.0791 -8.8859 6.7100 6.1028 0.0000 0.0000
 -1.7821 37.0138 -0.3808 8.7578 1.5884 -0.0507 -8.5240 7.7980 -0.0897 3.2495 -9.3231 2.6921 -13.7773 1.5269 19.1346 -12.4777 3.8150 -18.9235 -6.0370 0.0000 27.7899 2.6058 11.4156 -12.9497 33.1476 -0.0000 26.2537 3.6631 -8.4426 -18.5765 -30.5267 -11.6262 20.8841 14.6962 -0.0000 -169.1024 0.5526 6.8677 -4.6117 32.8623 0.0000 -24.3270 -7.3413 6.4554 4.4350 7.9556 -0.0000 0.0000 -14.1345 10.0161 -15.5557 14.7299 -0.0000 0.0000 -8.5534 -10.7779 -5.0796 10.0417 -0.0000 -0.0000 -13.0547 -8.8699 6.7204 6.1497 -0.0000 0.0000
 -1.7567 37.0138 -0.3816 8.7534 1.5843 -0.0440 -8.5068 7.8249 -0.1015 3.3006 -9.2680 2.6836 -13.7564 1.5358 19.1183 -12.5155 3.8118 -18.9068 -6.0670 0.0000 27.7992 2.6121 11.4232 -12.9717 33.1476 -0.0000 26.2537 3.6783 -8.4053 -18.5585 -30.5772 -11.6595 20.9387 14.7175 -0.0000 -169.0248 0.5507 6.8665 -4.5968 32.8623 0.0000 -24.3270 -7.3382 6.4494 4.3887 7.9725 0.0000 -0.0000 -14.1640 10.0140 -15.5163 14.7401 0.0000 0.0000 -8.5529 -10.7473 -5.1230 10.0397 -0.0000 0.0000 -13.0181 -8.9556 6.7396 6.0801 -0.0000 0.0000
 -1.7310 37.0147 -0.3837 8.7533 1.5722 -0.0302 -8.4847 7.8637 -0.1218 3.3332 -9.2940 2.7118 -13.7406 1.5442 19.1000 -12.5224 3.8101 -18.8911 -6.1226 0.0000 27.7491 2.6091 11.4076 -12.9741 33.1476 -0.0000 26.2537 3.7169 -8.4296 -18.5296 -30.5890 -11.6099 21.0294 14.7586 -0.0000 -169.0638 0.5553 6.8279 -4.6609 32.8623 0.0000 -24.3270 -7.3440 6.4524 4.3360 7.9981 -0.0000 -0.0000 -14.1900 10.0220 -15.4791 14.7386 0.0000 0.0000 -8.5613 -10.7485 -5.1813 10.0261 0.0000 -0.0000 -12.9809 -8.9475 6.8276 6.0848 -0.0000 0.0000
 -1.7037 37.0144 -0.3853 8.7519 1.5662 -0.0056 -8.4637 7.8807 -0.1611 3.4128 -9.2904 2.7812 -13.7356 1.5599 19.1095 -12.4806 3.7908 -18.8909 -6.1535 0.0000 27.6616 2.6092 11.3929 -12.9908 33.1476 -0.0000 26.2537 3.7250 -8.4001 -18.5028 -30.5951 -11.6087 21.1138 14.8151 -0.0000 -169.0653 0.5587 6.9302 -4.6202 32.8623 0.0000 -24.3270 -7.3448 6.4397 4.2684 8.0209 0.0000 -0.0000 -14.2158 10.0236 -15.4265 14.7191 0.0000 0.0000 -8.5621 -10.7012 -5.2428 10.0065 0.0000 -0.0000 -12.9632 -8.9939 6.8640 6.0904 0.0000 0.0000
 -1.6762 37.0145 -0.3861 8.7483 1.5614 0.0161 -8.4434 7.9145 -0.2006 3.4760 -9.2855 2.8213 -13.7456 1.5466 19.0967 -12.4867 3.8226 -18.8646 -6.2404 0.0000 27.6597 2.6146 11.4210 -12.9861 33.1476 -0.0000 26.2537 3.7217 -8.3723 -18.4585 -30.5117 -11.6109 21.1828 14.9054 -0.0000 -169.1786 0.5505 6.8779 -4.5872 32.8623 0.0000 -24.3270 -7.3451 6.4258 4.2040 8.0507 0.0000 -0.0000 -14.2447 10.0365 -15.3985 14.7567 0.0000 -0.0000 -8.5728 -10.7348 -5.3105 9.9958 0.0000 0.0000 -12.9405 -8.9649 6.8912 6.1153 -0.0000 0.0000
 -1.6438 37.0135 -0.3858 8.7431 1.5470 0.0622 -8.4247 7.9585 -0.2541 3.5162 -9.3296 2.7995 -13.7613 1.5309 19.0759 -12.5850 3.9036 -18.8296 -6.3443 0.0000 27.7218 2.6279 11.4405 -13.0286 33.1476 -0.0000 26.2537 3.7459 -8.3814 -18.4398 -30.5039 -11.6032 21.3051 15.0022 -0.0000 -169.2537 0.5465 6.9097 -4.5335 32.8623 0.0000 -24.3270 -7.2713 6.2794 4.1025 7.9633 0.0000 0.0000 -14.2371 10.1556 -15.4103 14.7640 -0.0000 -0.0000 -8.6324 -10.8251 -5.4175 10.0693 -0.0000 -0.0000 -12.9505 -8.8903 6.8979 6.1014 0.0000 -0.0000
 -1.6189 37.0138 -0.3881 8.7517 1.5437 0.0659 -8.4169 7.9694 -0.2862 3.5828 -9.2911 2.8798 -13.7684 1.5478 19.0759 -12.7739 3.9827 -18.8016 -6.4360 0.0000 27.8349 2.6375 11.4617 -13.0518 33.1476 -0.0000 26.2537 3.7630 -8.3705 -18.3858 -30.4960 -11.5809 21.4101 15.0731 -0.0000 -169.3132 0.5319 6.8478 -4.4522 32.8623 0.0000 -24.3270 -7.2829 6.2609 4.0603 7.9807 -0.0000 -0.0000 -14.2624 10.1728 -15.4116 14.7758 -0.0000 -0.0000 -8.6449 -10.8463 -5.4652 10.0456 -0.0000 -0.0000 -12.9081 -8.8677 6.9618 6.0866 0.0000 -0.0000
 -1.5934 37.0127 -0.3896 8.7599 1.5320 0.0571 -8.4081 8.0023 -0.2957 3.6399 -9.2814 2.9366 -13.7926 1.5500 19.0529 -12.7376 4.0240 -18.7735 -6.5969 0.0000 27.7125 2.6619 11.6162 -13.0018 33.1476 -0.0000 26.2537 3.7568 -8.3470 -18.3356 -30.4434 -11.6039 21.4905 15.1957 -0.0000 -169.4042 0.5282 6.8960 -4.3907 32.8623 0.0000 -24.3270 -7.3177 6.3107 4.0347 8.0394 -0.0000 -0.0000 -14.3158 10.1231 -15.3665 14.7742 0.0000 0.0000 -8.6485 -10.8849 -5.5007 10.0033 -0.0000 0.0000 -12.8639 -8.8220 7.0354 6.0813 -0.0000 0.0000
 -1.5645 37.0115 -0.3910 8.7701 1.5077 0.0796 -8.4032 8.0594 -0.3355 3.7122 -9.3025 2.9361 -13.7937 1.5598 19.0128 -12.7683 4.0719 -18.7233 -6.7725 0.0000 27.6559 2.6490 11.6060 -12.9516 33.1476 -0.0000 26.2537 3.7789 -8.3735 -18.2997 -30.3638 -11.5890 21.6400 15.3293 -0.0000 -169.6693 0.5254 6.9078 -4.3600 32.8623 0.0000 -24.3270 -7.3356 6.3310 3.9723 8.0785 0.0000 -0.0000 -14.3649 10.1164 -15.3419 14.7800 0.0000 -0.0000 -8.6797 -10.8859 -5.5727 10.0045 -0.0000 0.0000 -12.8405 -8.7894 7.1021 6.0381 -0.0000 0.0000
